<svg id="Layer_1" data-name="Layer 1" xmlns="http://www.w3.org/2000/svg" viewBox="0 0 1099 711.68">
   <defs>
      <style>.cls-1{fill:#666;}.cls-2{fill:#53301b;}.cls-3{fill:#00005b;}.cls-14,.cls-4,.cls-6{fill:#1a1a1a;}.cls-5{fill:#f2f2f2;}.cls-6{stroke:#000;opacity:0.2;}.cls-6,.cls-8{stroke-miterlimit:10;stroke-width:2px;}.cls-14,.cls-6{isolation:isolate;}.cls-7{fill:#e6e6e6;}.cls-17,.cls-18,.cls-8{fill:none;stroke:#3f3d56;}.cls-9{fill:#3f3d56;}.cls-10{fill:#871d25;}.cls-11{fill:#f7b992;}.cls-12{fill:#c1272d;}.cls-13{fill:#ecd0a1;}.cls-14{opacity:0.1;}.cls-15{fill:#2f2e41;}.cls-16{fill:#57b894;}.cls-17{stroke-miterlimit:10;stroke-width:2px;}.cls-18{stroke-miterlimit:10;stroke-width:2px;}</style>
   </defs>
   <ellipse class="cls-1" cx="951" cy="688" rx="148" ry="23.68"/>
   <ellipse class="cls-1" cx="229" cy="650.97" rx="229" ry="36.64"/>
   <path d="M210.34,410.13c-19.49,10.4,18.85,84.48,32.5,88.38s16.24-11.69,16.24-11.69,14.95,9.09,10.4,5.84-2.6-11,13-14.94,3.9-19.5-2.6-25.35-2.6-14.3,10.4-20.79S300,403,289,397.13s-9.1-12.35-9.1-12.35S229.84,399.73,210.34,410.13Z" transform="translate(0 -86)"/>
   <path class="cls-2" d="M220.93,444.17c6.74,15.16-27,40.44-27,40.44l25.28,25.28H259.7l21.9-28.65a46.05,46.05,0,0,0-20.22-8.42c-11.8-1.69-5.06-25.28-5.06-25.28S214.19,429,220.93,444.17Z" transform="translate(0 -86)"/>
   <polygon class="cls-2" points="237.79 629.9 182.17 646.35 180.49 669.95 207.45 668.26 246.21 654.78 237.79 629.9"/>
   <path class="cls-3" d="M196.5,725.61s-42.14-8.43-52.43-11.8-26.78,11.8-36.89,21.91,10.11,28.65,23.59,23.6,59,0,62.36,0,3.37-23.6,3.37-23.6Z" transform="translate(0 -86)"/>
   <path class="cls-3" d="M264.75,735.72s0,16.86,3.37,13.49,27,3.37,28.65,5,16.86,6.74,30.34,3.37-6.74-43.82-6.74-43.82Z" transform="translate(0 -86)"/>
   <path class="cls-4" d="M167,661.57c-11.79,3.37-8.42,40.45,0,52.24s121.35,11.8,144.94,0-8.43-55.61-8.43-55.61S178.8,658.2,167,661.57Z" transform="translate(0 -86)"/>
   <circle class="cls-2" cx="242.84" cy="334.57" r="38.76"/>
   <path class="cls-5" d="M293.4,550.34l8.43,89.32L177.12,643l3.37-91s-25.28-50.56-25.28-55.62,21.91-13.48,23.59-13.48,21.91-8.43,21.91-8.43,6.74,16.85,33.71,21.91,35.39-21.91,35.39-21.91l33.7,6.74Z" transform="translate(0 -86)"/>
   <path class="cls-2" d="M291.72,541.91l13.48,59-13.48,25.28V646.4s27-18.54,33.7-25.28-3.37-96.06-3.37-96.06Z" transform="translate(0 -86)"/>
   <path class="cls-2" d="M178.8,541.91,170.37,611l11.8,13.48s-3.37,8.43-8.42,8.43-20.23-11.8-20.23-15.17-5.9-95.22-5.9-95.22Z" transform="translate(0 -86)"/>
   <path class="cls-4" d="M175.43,671.68s42.13,28.65,45.5,25.28,11.8,0,18.54,1.69-1.68,20.22-5.9,31.67-108.7-19.88-108.7-19.88-40.45-16.85-38.76-59,77.52,0,77.52,0Z" transform="translate(0 -86)"/>
   <path class="cls-6" d="M175.43,671.68s-21.91-8.43-27-13.48-20.23-11.8-20.23-11.8" transform="translate(0 -86)"/>
   <path class="cls-5" d="M286.66,552s16.85-1.69,20.22-5.06,10.12-6.74,21.91-16.85-25.28-48.88-25.28-48.88l-10.11,3.37Z" transform="translate(0 -86)"/>
   <path class="cls-5" d="M194,535.17S180.49,552,170.37,552s-15.16-11.8-20.22-18.54-13.48-5.06-10.11-8.43,15.17-28.65,15.17-28.65L170.37,493Z" transform="translate(0 -86)"/>
   <path class="cls-4" d="M264.75,695.28c-3.37,5.05-18.54,8.42-21.91,8.42s-15.17,0-15.17,6.74,15.17,43.82,15.17,43.82,15.17-6.74,32-13.48S408,688.53,386.09,654.83s-85.95,11.8-85.95,11.8S268.12,690.22,264.75,695.28Z" transform="translate(0 -86)"/>
   <path class="cls-6" d="M283.29,683.48s5.06-8.43,20.22-11.8,32-16.85,32-16.85" transform="translate(0 -86)"/>
   <path class="cls-7" d="M311.77,591.29a8.93,8.93,0,0,0-8.93-8.93H164.67l-.51,0a8.93,8.93,0,0,0-8.41,9.43l4,69.86a8.94,8.94,0,0,0,8.82,8.42l132.79,1.49a8.93,8.93,0,0,0,9-8.76l1.35-71.36Z" transform="translate(0 -86)"/>
   <path d="M186.39,394.8c-16.86,20.23-1.77,98.75,13.35,103.07s18-13,18-13,16.56,10.08,11.52,6.48-2.88-12.24,14.4-16.56,4.32-21.6-2.88-28.08-2.88-15.84,11.52-23,10.8-31.68-1.44-38.16-10.08-13.68-10.08-13.68S202.06,376,186.39,394.8Z" transform="translate(0 -86)"/>
   <path d="M235.28,391.65c10.78,24-34.33,110.43-50.06,110.51s-13.83-17.33-13.83-17.33-18.67,5.24-12.84,3.13,6.07-11-9.4-19.83,1.66-22,10.34-26.26,41-18.47,29.12-29.29,2.3-26.15,11.67-36.35c13.53-14.73,45.09-22.31,45.09-11.76C245.37,364.47,225.26,369.31,235.28,391.65Z" transform="translate(0 -86)"/>
   <path d="M205.26,373.69c13.48,9.51,32.34,22.82,42.12,29.86,8.11-2.74,37.3,6.21,37.59-12.17,0,0-4.24-31.76-46.43-29.22A63.74,63.74,0,0,0,205.26,373.69Z" transform="translate(0 -86)"/>
   <path class="cls-8" d="M525.33,258.76C288.41,387.45,250.56,564.85,250.56,564.85" transform="translate(0 -86)"/>
   <polygon class="cls-9" points="249.44 480.54 243.95 469.86 245.73 468.94 250.24 477.71 258.66 472.58 259.7 474.29 249.44 480.54"/>
   <path class="cls-10" d="M913,735.58s5.9,7.07,8.25,10.6,21.22,22.39,21.22,22.39,4.71,5.9,3.53,16.5-41.24,1.18-41.24-5.89-17.68-13-22.4-16.5-.49-27.13-.49-27.13l6.39,4.74Z" transform="translate(0 -86)"/>
   <path class="cls-4" d="M981.58,444.83l-3.31-7.27-1.66-3.67-64.81,8.25L913,580s-4.4,19.29-9.38,38.46c-1.22,4.68-2.47,9.35-3.71,13.73-3.14,11.19-6.15,20.49-8.12,23.23-5.89,8.25-2.35,49.5-8.25,51.85s-4.71,18.86-3.53,21.22,1.18,7.07,4.71,15.32,34.18-4.72,33-9.43,4.71-9.43,8.25-14.14,11.78-21.22,10.6-25.93a9.56,9.56,0,0,1,0-2.33c.31-3.35,1.34-9.74,2.86-17.68,3.48-18.08,9.49-44.18,15.11-60.49a68,68,0,0,1,5-11.76c1-1.75,2-2.85,2.93-3.19,9.43-3.54,1.18-16.5,0-20-1-2.93,13.46-91.85,18.41-122,.47-2.94.86-5.32,1.14-7l.48-2.94Z" transform="translate(0 -86)"/>
   <path class="cls-10" d="M989.57,704.94s-16.49,13-16.49,16.5S997.82,761.5,999,768.57s14.14,13,25.93,10.61,1.18-43.6-7.07-51.85-13-44.78-17.68-54.21-14.14,0-14.14,0Z" transform="translate(0 -86)"/>
   <path class="cls-4" d="M970.72,390.29c8.25,0,11.78,56.56,11.78,56.56l-64.81,20v71.88s-2.36,17.68,9.43,28.29,42.42,58.92,42.42,67.17,17.68,25.93,21.21,29.46,0,10.61,1.18,15.32,3.54,16.5,2.36,23.57-21.21,17.68-23.57,14.14-20-21.21-20-21.21-9.43-9.43-14.15-13-42.42-70.71-48.31-79-24.75-57.75-28.29-70.71S841.09,382,841.09,382C854.05,371.43,962.47,390.29,970.72,390.29Z" transform="translate(0 -86)"/>
   <circle class="cls-11" cx="936.54" cy="60.35" r="38.89"/>
   <path class="cls-11" d="M966,161.67c-3.54,16.49,9.42,42.42,9.42,42.42l-7.07,22.39-40.07-2.36s-21.21-20-15.32-24.74S923.58,177,923.58,177,969.54,145.17,966,161.67Z" transform="translate(0 -86)"/>
   <path class="cls-5" d="M878.8,228.84,867,271.26l-18.85,79s-4.71,25.93-3.54,33,21.22,10.6,33,11.78,48.32,11.79,76.6,5.89,21.21,3.54,21.21,3.54l-3.53-28.28-2.36-103.71,13-37.71s-4.71-24.75-7.07-25.93-10.6,2.36-23.57,4.72-29.46-8.25-31.81-11.79-13-4.71-13-4.71Z" transform="translate(0 -86)"/>
   <path class="cls-12" d="M911.8,235.91c1.17,9.43-28.29,90.74-30.64,96.63s-15.32,35.36-24.75,47.14-8.25,56.57-11.79,56.57-11.78,2.35-21.21,0,13-69.53,13-69.53l8.25-35.36s7.07-9.42,4.72-17.67,7.07-103.71,7.07-107.24,44.78-10.61,48.32-15.32,13.5.57,13.5.57S910.62,226.48,911.8,235.91Z" transform="translate(0 -86)"/>
   <path class="cls-12" d="M943.61,286.58c-7.07,18.86,10.61,86,16.5,96.64s13,61.28,13,66,10.6,3.54,15.32,0-5.9-60.1-13-83.67,7.07-93.1,7.07-93.1,34.18-25.92,34.18-29.46-16.5-18.86-21.21-22.39-16.5-18.86-17.68-21.21S967.18,197,967.18,197,950.69,267.73,943.61,286.58Z" transform="translate(0 -86)"/>
   <path class="cls-11" d="M839.91,323.12l4.71,30.64s1.18,10.6,5.9,15.32,13,4.71,15.32,7.07,29.46,14.14,29.46,16.49-22.39-3.53-25.93,3.54-24.75,13-24.75,13-8.25-21.21-21.21-40.06-11.78-55.39-11.78-55.39Z" transform="translate(0 -86)"/>
   <path class="cls-13" d="M930,125.11c5.74,3.34,7.86,11.78,8.4,17.85.25,2.86.32,5.81,1.41,8.46s3.5,5,6.37,5.05c4.48,0,8.94-5.29,12.58-2.7,1.47,1,1.93,3,2.3,4.74l4.05,19.8c7.82-10.81,15.76-21.84,19.93-34.51s4.08-27.47-3.51-38.45c-4.78-6.92-12.15-11.77-20-14.67s-16.35-4-24.75-4.5c-4.33-.27-8.74-.39-12.92.76-4.62,1.27-8.68,4-12.64,6.71l-9,6.1a22.82,22.82,0,0,0-4.14,3.33c-4.51,5-2.94,14.1,3,17.29,2.64,1.43,5.73,1.73,8.72,2C915.77,122.91,924.63,122,930,125.11Z" transform="translate(0 -86)"/>
   <path class="cls-14" d="M918.28,447.44s2.35,122.56,0,119-6.34-118.67-6.34-118.67Z" transform="translate(0 -86)"/>
   <path class="cls-12" d="M857.55,310.89l-15.28,19.3c-7.07-14.15-30.64-10.61-30.64-10.61s-4.72-9.43-8.25-11.78,8.25-13,8.25-13l9.42-17.67s4.72-9.43,0-13,35.36-57.74,35.36-57.74h9.43Z" transform="translate(0 -86)"/>
   <rect class="cls-15" x="833.62" y="243.21" width="65.22" height="35" transform="translate(294.64 875.85) rotate(-67.56)"/>
   <path class="cls-11" d="M852.17,253.38c9.16-14.62,36.06,23.78,36.06,23.78l29.46,13c29.46,18.85,55.39,17.68,55.39,17.68s29.46,18.85,15.32,41.24-99-48.32-99-48.32C867.81,293.45,843,268,852.17,253.38Z" transform="translate(0 -86)"/>
   <path class="cls-12" d="M990.75,238.27s-25.92,68.35-23.57,68.35,18.86,43.6,20,47.14,22.39-23.57,22.39-23.57a44.55,44.55,0,0,0-1.18-16.5c-2.36-8.25,4.71-7.07,8.25-10.61s4.71-17.68,4.71-17.68l-4.71-7.07V243l-13-4.71Z" transform="translate(0 -86)"/>
   <path class="cls-15" d="M873.5,398c-3.54-5.89-24.75,5.89-30.84,6.48s6.09,12.37,6.09,12.37S877,403.84,873.5,398Z" transform="translate(0 -86)"/>
   <ellipse class="cls-16" cx="611" cy="93" rx="17" ry="9"/>
   <path class="cls-16" d="M552,166a199,199,0,0,1,115,0v47q-57.5-21.72-115,0Z" transform="translate(0 -86)"/>
   <path class="cls-8" d="M568,169.36a143.6,143.6,0,0,1,83,0v33.92q-41.5-15.67-83,0Z" transform="translate(0 -86)"/>
   <ellipse class="cls-8" cx="611" cy="93" rx="17" ry="9"/>
   <ellipse class="cls-16" cx="601.22" cy="234.43" rx="9" ry="17" transform="translate(251.3 690.62) rotate(-78.46)"/>
   <path class="cls-16" d="M546,209.89a199,199,0,0,1,112.68,23l-9.4,46.05q-52-32.78-112.68-23Z" transform="translate(0 -86)"/>
   <path class="cls-8" d="M561,216.38A143.58,143.58,0,0,1,642.34,233l-6.78,33.24q-37.53-23.67-81.33-16.6Z" transform="translate(0 -86)"/>
   <ellipse class="cls-17" cx="601.22" cy="234.43" rx="9" ry="17" transform="translate(251.3 690.62) rotate(-78.46)"/>
   <ellipse class="cls-16" cx="603.56" cy="291.91" rx="17" ry="9" transform="translate(-18.81 -43.4) rotate(-3.98)"/>
   <path class="cls-16" d="M543.8,283a199,199,0,0,1,114.72-8l3.27,46.88q-58.87-17.67-114.73,8Z" transform="translate(0 -86)"/>
   <path class="cls-8" d="M560,285.28a143.6,143.6,0,0,1,82.8-5.76l2.35,33.84q-42.48-12.76-82.8,5.76Z" transform="translate(0 -86)"/>
   <ellipse class="cls-18" cx="603.56" cy="291.91" rx="17" ry="9" transform="translate(-18.81 -43.4) rotate(-3.98)"/>
   <path class="cls-8" d="M810.06,234.8c-52.49-30.76-126-20.71-126-20.71" transform="translate(0 -86)"/>
   <polygon class="cls-9" points="681.36 129.44 687.03 118.85 688.8 119.8 684.14 128.49 693.15 132.5 692.33 134.33 681.36 129.44"/>
</svg>